<svg width="90" height="26" viewBox="0 0 90 26" fill="none" xmlns="http://www.w3.org/2000/svg">
<rect width="90" height="26" rx="5.93182" fill="#0094C4"/>
<g clip-path="url(#clip0_204_278)">
<path d="M70.25 14.251C69.4425 13.4115 69.0387 12.0781 69.0387 10.2505C69.0387 8.42296 69.4425 7.08948 70.25 6.25006C71.0564 5.41663 72.205 4.99692 73.6959 4.99092C75.1868 4.98493 76.336 5.40464 77.1436 6.25006C77.9511 7.08948 78.3549 8.42296 78.3549 10.2505C78.3549 11.9449 77.9822 13.2437 77.2368 14.1466C76.4913 15.0496 75.311 15.5011 73.6959 15.5011C72.205 15.5011 71.0564 15.0844 70.25 14.251ZM74.5966 12.2112V8.28266C74.5966 7.6411 74.2964 7.31972 73.6959 7.31852C73.0954 7.31732 72.7958 7.6387 72.797 8.28266V12.2112C72.797 12.8539 73.0966 13.1753 73.6959 13.1753C74.2952 13.1753 74.5954 12.8539 74.5966 12.2112Z" fill="#263768"/>
<path d="M79.1223 15.3195V13.1826H80.4012V7.31859H78.7222V5.8472L81.6601 5.18166H83.8836V13.1826H84.9945V15.3195H79.1223Z" fill="#263768"/>
<path d="M84.8374 16.6992H69.4937V20.9982H84.8374V16.6992Z" fill="#263768"/>
<path d="M19.96 17.4654H20.7658V20.7212H12.8637V17.4654H14.0732L13.7498 15.8771H11.0092L10.6877 17.4654H11.8972V20.7212H5V17.4654H5.80574L9.21322 5.27702H16.5525L19.96 17.4654ZM11.4514 13.7726H13.3132L12.4873 9.8153H12.2845L11.4514 13.7726Z" fill="white"/>
<path d="M22.7518 19.0933C21.3742 17.8234 20.6854 15.792 20.6854 12.9991C20.6854 7.66516 23.3201 4.99878 28.5893 4.99998C29.7914 4.98966 30.9892 5.14343 32.1484 5.45688C33.2447 5.76027 34.0614 6.09724 34.5985 6.46778V11.4306H29.7568V10.0023C29.7568 9.49869 29.6429 9.12815 29.4152 8.89071C29.1874 8.65327 28.8445 8.53336 28.3865 8.53096C27.9297 8.53096 27.5869 8.65087 27.3579 8.89071C27.1289 9.13054 27.015 9.50109 27.0162 10.0023V15.9886C27.0162 16.4923 27.1307 16.8628 27.3597 17.1003C27.5887 17.3377 27.9316 17.4576 28.3883 17.46C28.8451 17.46 29.188 17.3401 29.417 17.1003C29.646 16.8604 29.7593 16.4899 29.7568 15.9886V14.3823H34.5985V19.5232C34.0468 19.8938 33.2301 20.2313 32.1484 20.5359C31.0027 20.848 29.8183 21.0012 28.6295 20.991C26.0923 20.9958 24.1331 20.3632 22.7518 19.0933Z" fill="white"/>
<path d="M50.4027 10.0815H46.9313V8.53278H45.6523V17.4654H47.0646V20.7212H38.5907V17.4654H40.0012V8.53278H38.7095V10.0815H35.238V5.27702H50.4027V10.0815Z" fill="white"/>
<path d="M53.7426 19.6293C52.594 18.7156 52.019 17.2334 52.0178 15.1828V8.52737H51.0111V5.27161H58.471V8.52737H57.6635V16.1901C57.6635 16.6272 57.7621 16.9474 57.9558 17.1524C58.2034 17.3514 58.5132 17.4601 58.8328 17.4601C59.1524 17.4601 59.4622 17.3514 59.7098 17.1524C59.9047 16.9474 60.0021 16.6266 60.0021 16.1901V8.52737H59.1964V5.27161H66.1155V8.52737H65.107V15.1828C65.107 17.2334 64.5491 18.7156 63.4334 19.6293C62.3176 20.5431 60.7147 20.9994 58.6245 20.9982C56.5197 20.9982 54.8924 20.5419 53.7426 19.6293Z" fill="white"/>
</g>
<defs>
<clipPath id="clip0_204_278">
<rect width="80" height="16" fill="white" transform="translate(5 5)"/>
</clipPath>
</defs>
</svg>
